<?xml version="1.0" encoding="utf-8"?>
<!-- Generator: Adobe Illustrator 18.0.0, SVG Export Plug-In . SVG Version: 6.00 Build 0)  -->
<!DOCTYPE svg PUBLIC "-//W3C//DTD SVG 1.1//EN" "http://www.w3.org/Graphics/SVG/1.1/DTD/svg11.dtd">
<svg version="1.1" id="Layer_1" xmlns="http://www.w3.org/2000/svg" xmlns:xlink="http://www.w3.org/1999/xlink" x="0px" y="0px"
	 viewBox="150.6 870.7 512 146" enable-background="new 150.6 870.7 512 209.7" xml:space="preserve">
<g>
	<polygon fill="#F8991C" points="586.9,951.4 662.6,904.2 662.6,917 586.9,964.4 511.1,917 511.1,904.2 	"/>
	<path fill="#F8991C" d="M586.9,892.2c-17.1,0-32.1,8.6-40.7,21.9l0,0c0.7-0.7,1.1-1.1,1.8-1.6c21.3-17.7,52-13.7,68.7,8.6l11.1-7.1
		l0,0C619,901.1,603.9,892.2,586.9,892.2"/>
	<path fill="#F8991C" d="M586.9,914.1c-9.3,0-17.5,4.7-22.4,11.5c4-2.9,8.6-4.4,13.5-4.4c8.2,0,15.5,4.2,20.4,11.3l10.6-6.6l0,0
		C604.4,918.6,596.2,914.1,586.9,914.1"/>
	<path fill="#F8991C" d="M535.7,894.9c31.2-24.6,75.3-17.9,98.8,14.8l0.2,0.2l11.5-7.1l0,0c-12.6-19.3-34.5-32.1-59.3-32.1
		c-24.6,0-46.5,12.6-59.3,32.1C529.9,900.2,532.8,897.1,535.7,894.9"/>
</g>
<g>
	
	
	
	
	
	
	
	
	
</g>
<g>
	
	
	
	
	
	
	<g>
		
	</g>
	<g>
		
	</g>
</g>
<path fill="#2D2D2D" d="M219.5,990.5v-45.2h14.8v44.7c0,10.9,9.1,13.5,14.2,13.5c11.1,0,14.8-6.6,14.8-10.4v-47.8h14.8v70.2h-8.6
	l-5.8-8c-4,4.9-10.6,9.3-20.4,9.3C229.2,1016.9,219.5,1007.6,219.5,990.5z"/>
<path fill="#2D2D2D" d="M387.8,920.6v95h8.4l5.5-8c4,4.9,10.6,9.5,20.4,9.5c13.1,0,24.1-8,24.1-25.7v-21.7
	c0-17.7-11.1-25.7-24.8-25.7c-9.5,0-15.9,4.2-19.3,8.4v-31.9L387.8,920.6L387.8,920.6z M417.9,1003.6c-9.1,0-15.7-4.4-15.5-14l0,0
	v-19.3c0-7.5,6-13.3,15.7-13.3c6.9,0,13.7,5.1,13.7,13.3v19.7C431.8,998.7,424.8,1003.6,417.9,1003.6z"/>
<path fill="#2D2D2D" d="M332.4,920.6v31.9c-3.3-4.2-9.7-8.4-19.3-8.4c-13.7,0-24.8,8-24.8,25.7v21.7c0,17.7,11.1,25.7,24.1,25.7
	c9.7,0,16.4-4.7,20.4-9.5l5.5,8h8.4v-95H332.4L332.4,920.6z M302.7,990.3v-19.7c0-8.2,6.9-13.3,13.7-13.3c9.7,0,15.7,5.5,15.7,13.3
	v19.3l0,0c0.2,9.5-6.4,14-15.5,14C309.8,1003.6,302.7,998.7,302.7,990.3z"/>
<path fill="#2D2D2D" d="M456.2,920.6H471v95h-14.8V920.6z"/>
<g>
	<rect x="360.1" y="945.4" fill="#2D2D2D" width="14.8" height="70.2"/>
	<circle fill="#2D2D2D" cx="367.6" cy="928.5" r="8.4"/>
</g>
<g>
	<path fill="#2D2D2D" d="M511.8,1003.6c-10.2,0-15.1-5.3-15.1-12.6v-5.8h43.8v-15.7c0-16.2-11.3-25.7-28.8-25.7
		c-18.2,0-29.9,10.2-29.9,26.1v21.7c0,16.2,11.7,25.7,29.9,25.7c13.5,0,23.5-5.5,27.5-14.8l-10.6-6.6
		C524.9,1001,519.5,1003.6,511.8,1003.6z M496.7,969.7c0-7.3,5.1-12.4,14.6-12.4c9.5,0,14.6,5.1,14.6,12.4v4.4h-29L496.7,969.7
		L496.7,969.7z"/>
</g>
<path fill="#2D2D2D" d="M181.4,943.8c-14.4,0-23.7,5.8-27.2,14.4l11.5,7.1c4.9-7.8,9.5-8.2,15.7-8.2c9.1,0,13.1,4.2,13.1,11.1v5.5
	H182c-9.1,0-31.4,3.1-31.4,22.4c0,13.7,10.4,20.6,23,20.6c10,0,17.3-4.7,21.5-9.5l5.8,8h8.6v-48.1
	C209.3,953.8,200,943.8,181.4,943.8z M194.4,993.2c-0.2,1.1-0.2,2.4-1.6,4.2c-2.2,3.1-8,6.2-14.6,6.2c-7.1,0-12.2-2.9-12.2-8.6
	c0-8.4,13.5-10.2,22.1-10.6h6.4L194.4,993.2L194.4,993.2z"/>
<path fill="#2D2D2D" d="M448.9,968.8"/>
</svg>
