<svg xmlns="http://www.w3.org/2000/svg" viewBox="0 0 600.364 614.158">
  <mask id="bv">
<g>
	<path fill="white" d="M302.351,35.571c-142.424,0-257.907,115.471-257.907,257.935c0,142.412,115.483,257.882,257.907,257.882
		c142.427,0,257.896-115.47,257.896-257.882C560.248,151.042,444.778,35.571,302.351,35.571"/>
	<path fill="white" d="M301.219,124.897c-83.879,0-153.438,61.148-166.6,141.306h77.968v101.251h13.665h4.095v-83.505h25.732
		v43.504h15.621v-69.313h9.865l-0.426-33.562h7.354V198.59h9.479v-37.014h5.01l1.842-29.801l2.138,29.801h5.307v37.014h8.512v26.04
		h6.697l0.245,33.511h9.62v76.422h25.268v32.867l5.487,0.077h16.729V213.813h25.744v47.059h56.279
		C451.526,183.341,383.217,124.897,301.219,124.897"/>
	<path fill="black" d="M466.851,260.871h-56.293v-47.059h-25.744v153.694h-16.716l-5.461-0.077v-32.867h-25.294v-76.422h-9.634
		l-0.231-33.511h-6.697v-26.04h-8.524v-37.039h-5.269l-2.163-29.775l-1.854,29.775h-5.011v37.039h-9.441v25.963h-7.379l0.439,33.588
		h-9.892v69.313H256.08v-43.504h-25.744v83.505h-4.083h-13.665V266.203H134.62c-1.479,8.962-2.267,18.185-2.267,27.586
		c0,88.09,67.471,160.392,153.553,168.118c5.075,0.438,10.162,0.746,15.3,0.746c5.178,0,10.265-0.309,15.3-0.746
		c86.095-7.727,153.553-80.028,153.553-168.118C470.058,282.533,468.951,271.535,466.851,260.871"/>
	<polygon opacity="0.7" fill="white" points="600.364,0.772 501.431,0.772 302.429,419.872 97.041,0 0,0 302.455,614.158 	"/>
	<polygon fill="white" points="257.212,327.453 256.08,327.453 256.08,325.161 	"/>
	<path fill="black" d="M201.667,455.416c0,0-27.664,13.601-34.13,16.794c1.237-7.109,6.491-37.477,6.491-37.477l-8.758-6.517
		l-0.631,3.734l-8.023,48.295l6.284,4.714l47.472-23.053L201.667,455.416z"/>
	<path fill="black" d="M461.442,440.193c-9.26-11.513-23.968-12.467-36.601-2.344c-12.634,10.123-14.914,24.701-5.654,36.24
		c10.445,12.981,26.119,10.097,36.293,1.958C465.641,467.882,471.835,453.201,461.442,440.193 M453.161,445.653
		c2.977,3.735,4.303,7.573,3.853,11.437c-0.451,4.199-3.028,8.397-7.278,11.797c-4.25,3.4-8.912,5.05-13.084,4.561
		c-3.851-0.414-7.329-2.525-10.342-6.26c-2.422-3.041-3.529-6.723-3.143-10.406c0.477-4.405,2.987-8.525,7.265-11.977
		C438.338,438.494,447.675,438.828,453.161,445.653"/>
	<path fill="black" d="M116.087,230.657c-1.764-2.73-4.559-4.506-8.281-5.307c-5.408-1.157-9.105,0.954-11.475,3.169
		c-1.186-2.396-3.349-4.868-7.752-5.77c-13.033-2.782-15.982,10.922-16.937,15.454l-5.589,26.194l45.836,9.763l4.957-23.387
		C118.329,243.896,119.617,236.092,116.087,230.657 M76.808,256.75c0.721-3.35,2.91-13.574,2.91-13.574
		c1.868-8.887,3.129-11.72,6.902-10.895c1.005,0.206,1.714,0.669,2.189,1.391c0.581,0.874,0.877,2.188,0.877,3.914
		c0,1.571-0.271,3.504-0.747,5.744c0,0-2.241,10.612-3.233,15.3C83.195,258.115,79.32,257.291,76.808,256.75 M108.591,245.623
		c0,0-2.575,12.08-3.63,17.129c-2.692-0.593-7.844-1.675-10.536-2.242c0.773-3.555,3.774-17.67,3.774-17.67
		c1.931-9.04,5.603-8.267,7.366-7.88c1.365,0.281,2.318,0.849,2.872,1.725c0.632,0.953,0.837,2.241,0.837,3.657
		C109.275,242.119,108.939,244.052,108.591,245.623"/>
	<path fill="black" d="M260.819,61.226l-1.379,0.257l-7.571,1.469l-14.902,50.563l10.717-2.036c0,0,2.768-9.685,3.373-11.849
		c2.37-0.437,21.572-4.119,23.979-4.559c1.34,1.752,7.406,9.788,7.406,9.788l10.792-2.087L260.819,61.226z M253.902,89.766
		c1.16-4.122,3.221-11.462,4.585-16.383c3.092,4.07,7.728,10.123,10.315,13.523C264.695,87.705,258.011,88.967,253.902,89.766"/>
	<path fill="black" d="M355.193,63.492l-22.73-4.482l-0.451,2.267l-8.654,43.712l21.16,4.172
		c5.988,1.186,14.553,1.649,21.392-2.937c4.778-3.193,7.907-8.372,9.284-15.3C377.938,76.988,370.287,66.455,355.193,63.492
		 M347.106,100.324c0,0-8.282-1.621-12.402-2.42c0.734-3.632,4.829-24.393,5.538-28.05c3.296,0.67,13.187,2.628,13.187,2.628
		c3.452,0.67,8.152,2.292,10.664,6.053c1.235,1.828,1.842,4.044,1.842,6.567c0,1.185-0.129,2.447-0.398,3.76
		c-0.915,4.637-2.848,7.96-5.719,9.893C356.674,100.866,352.399,101.381,347.106,100.324"/>
	<path fill="black" d="M537.181,262.802c0,0-18.338-10.482-22.164-12.672l15.932-19.937l-2.37-12.569l-3.168,3.993
		c0,0-19.1,24.135-20.091,25.422c-1.532,0.284-18.21,3.452-18.21,3.452l1.828,9.607c0,0,16.666-3.194,18.198-3.503
		c1.416,0.824,32.415,18.828,32.415,18.828L537.181,262.802z"/>
	<path fill="black" d="M205.478,101.459c-8.127-12.338-22.679-14.656-36.214-5.77c-6.903,4.56-11.476,10.766-12.866,17.488
		c-1.235,6.079,0.078,12.338,3.877,18.081c9.156,13.885,25.049,12.493,35.919,5.332c6.812-4.481,11.526-10.973,12.931-17.798
		C210.334,112.921,209.072,106.919,205.478,101.459 M168.001,125.053c-4.828-7.314-2.267-16.331,6.17-21.895
		c8.474-5.563,17.745-4.353,22.576,2.962c2.188,3.349,3.064,6.389,3.064,9.118c0,7.265-6.194,12.081-8.654,13.703
		C187.783,131.156,176.154,137.441,168.001,125.053"/>
	<path fill="black" d="M454.81,114.698c0,0-15.879,12.956-23.079,18.828c2.744-8.912,8.835-28.513,8.835-28.513l-6.864-4.715
		c0,0-15.981,12.879-23.335,18.777c2.923-8.937,9.233-28.332,9.233-28.332l-8.5-5.821l-0.929,3.013l-13.367,43.943l6.865,4.687
		c0,0,16.109-13.059,23.413-18.982c-2.848,8.964-9.118,28.72-9.118,28.72l6.877,4.662l38.404-30.498L454.81,114.698z"/>
	<path fill="black" d="M295.913,483.389l-23.155-1.288l-0.143,2.345l-2.447,44.457l21.521,1.185
		c6.093,0.334,14.644-0.387,20.76-5.873c4.303-3.863,6.673-9.376,7.071-16.407C320.28,493.588,311.238,484.239,295.913,483.389
		 M281.992,491.785c3.373,0.181,13.393,0.748,13.393,0.748c6.619,0.359,14.321,3.038,14.321,13.315c0,0.387-0.025,0.798-0.051,1.211
		c-0.528,9.813-6.118,14.501-16.641,13.936c0,0-9.31-0.517-12.607-0.695C280.613,516.615,281.772,495.495,281.992,491.785"/>
	<polygon fill="black" points="232.808,470.433 232.021,472.597 216.593,514.4 225.71,517.774 241.964,473.781 	"/>
	<path fill="black" d="M397.77,502.655c0,0-27.882,8.783-31.708,9.968c-0.811-2.601-2.343-7.443-3.154-10.046
		c3.683-1.185,25.95-8.164,25.95-8.164l-2.769-8.732c0,0-22.242,6.98-25.951,8.166c-0.746-2.423-1.881-6.028-2.64-8.423
		c3.799-1.21,31.037-9.788,31.037-9.788l-2.769-8.732l-2.216,0.695l-38.107,12.004l14.102,44.688l40.968-12.931L397.77,502.655z"/>
	<path fill="black" d="M499.023,162.889l-1.404,0.156l-51.038,5.125l5.911,9.171c0,0,10.021-1.109,12.234-1.366
		c1.327,2.034,11.951,18.416,13.278,20.452c-1.146,1.931-6.259,10.585-6.259,10.585l5.962,9.196l26.272-45.668L499.023,162.889z
		 M474.939,174.894c4.25-0.49,11.835-1.366,16.884-1.933c-2.563,4.38-6.465,10.973-8.628,14.656
		C480.927,184.114,477.207,178.396,474.939,174.894"/>
	<path fill="black" d="M152.226,175.407l6.8-9.993c0,0-18.933,0.772-24.239,0.979c0.773-2.008,1.354-4.121,1.354-6.285
		c0-3.914-1.584-7.805-5.859-10.688c-4.354-2.963-13.059-5.899-22.318,7.727l-15.005,22.101l38.778,26.351l5.459-8.089
		c0,0-12.529-8.5-15.467-10.482c1.777-2.628,6.389-9.453,7.367-10.87C131.232,176.104,152.226,175.407,152.226,175.407
		 M106.016,176.309c1.983-2.909,8.887-13.059,8.887-13.059c2.01-2.937,4.585-6.388,7.02-6.851c0.579-0.103,1.532-0.13,2.974,0.849
		c1.482,1.007,1.805,1.881,1.907,2.5c0.051,0.206,0.051,0.438,0.051,0.695c0,2.37-2.009,5.666-3.8,8.319
		c0,0-6.941,10.149-8.911,13.084C111.955,180.354,108.206,177.777,106.016,176.309"/>
</g>
</mask>
  <rect x="0" y="0" width="600.364" height="614.158" fill="#000" mask="url(#bv)"/>
</svg>
