<?xml version="1.0" encoding="utf-8"?>
<!-- Generator: Adobe Illustrator 23.0.1, SVG Export Plug-In . SVG Version: 6.00 Build 0)  -->
<svg version="1.1" id="Layer_1" xmlns="http://www.w3.org/2000/svg" xmlns:xlink="http://www.w3.org/1999/xlink" x="0px" y="0px"
	 viewBox="0 0 1868 908" style="enable-background:new 0 0 1868 908;" xml:space="preserve">
<style type="text/css">
	.st0{fill:#222222;}
</style>
<g>
	<rect x="0.2" y="838.51" class="st0" width="1867.61" height="69.61"/>
	<rect x="362.13" y="9.28" class="st0" width="117.01" height="751.43"/>
	<polygon class="st0" points="1672.9,760.71 1789.92,760.71 1789.92,120.66 1867.8,120.66 1867.8,9.28 1789.92,9.28 1672.9,9.28 
		1595.02,9.28 1595.02,120.66 1672.9,120.66 	"/>
	<polygon class="st0" points="1286.48,760.71 1286.48,649.33 1169.78,649.33 1169.78,9.28 1052.76,9.28 1052.76,649.33 
		1052.76,760.71 1169.78,760.71 	"/>
	<polygon class="st0" points="1445.32,760.71 1565.53,760.71 1565.53,649.33 1445.32,649.33 1445.32,436.29 1535.84,436.29 
		1535.84,333.7 1445.32,333.7 1445.32,120.66 1562.03,120.66 1562.03,9.28 1445.32,9.28 1328.31,9.28 1328.31,120.66 1328.31,333.7 
		1328.31,436.29 1328.31,760.71 1345.79,760.71 	"/>
	<polygon class="st0" points="636.83,245.84 718.09,760.71 781.9,760.71 870.05,249.98 870.05,760.71 987.06,760.71 987.06,9.28 
		830.28,9.28 768.81,333.05 710.74,9.28 544.11,9.28 544.11,760.71 636.83,760.71 	"/>
	<path class="st0" d="M138.72,770.1h1.05c49.23,0,86.27-24.22,108.76-61.63l20.78,52.24h34.3v-386.9h-7.77H186.6h-39.53v104.74
		h39.53v143.88c0,25.12-11.29,37.45-31.95,37.45h-5.5c-20.65,0-31.95-12.34-31.95-37.45h0v-474.9c0-25.12,11.29-37.45,31.94-37.45
		h6.44c20.65,0,31.95,12.34,31.95,37.45v124.55h110.51V142.22c0-60.68-33.51-142.34-148.93-142.34C33.71-0.12,0.2,81.54,0.2,142.22
		v485.53C0.2,688.44,26.32,770.1,138.72,770.1z"/>
</g>
</svg>
